<?xml version="1.0" encoding="UTF-8"?>
<svg id="Layer_1" data-name="Layer 1" xmlns="http://www.w3.org/2000/svg" viewBox="0 0 4000 4000">
  <defs>
    <style>
      .cls-1 {
        fill: #fff;
      }

      .cls-2 {
        fill: #e92d6d;
      }
    </style>
  </defs>
  <circle class="cls-2" cx="2000" cy="2000" r="1463.58" transform="translate(-828.43 2000) rotate(-45)"/>
  <g>
    <path class="cls-1" d="M2464.78,2791.12h-929.57c-179.94,0-326.34-146.4-326.34-326.34v-929.57c0-179.94,146.4-326.34,326.34-326.34h929.57c179.94,0,326.34,146.4,326.34,326.34v929.57c0,179.94-146.4,326.34-326.34,326.34ZM1535.22,1367.1c-92.69,0-168.12,75.42-168.12,168.12v929.57c0,92.69,75.42,168.11,168.12,168.11h929.57c92.69,0,168.12-75.42,168.12-168.11v-929.57c0-92.69-75.42-168.12-168.12-168.12h-929.57Z"/>
    <path class="cls-1" d="M2000,2395.56c-218.12,0-395.56-177.44-395.56-395.56s177.45-395.56,395.56-395.56,395.56,177.44,395.56,395.56-177.44,395.56-395.56,395.56ZM2000,1762.66c-130.88,0-237.34,106.46-237.34,237.34s106.46,237.34,237.34,237.34,237.34-106.46,237.34-237.34-106.46-237.34-237.34-237.34Z"/>
    <circle class="cls-1" cx="2395.56" cy="1604.44" r="79.11"/>
  </g>
</svg>