<?xml version="1.0" encoding="UTF-8"?>
<svg id="Layer_1" data-name="Layer 1" xmlns="http://www.w3.org/2000/svg" viewBox="0 0 4000 4000">
  <defs>
    <style>
      .cls-1 {
        fill: #fff;
      }

      .cls-2 {
        fill: #e92d6d;
      }
    </style>
  </defs>
  <circle class="cls-2" cx="2000" cy="2000" r="1463.58" transform="translate(-828.43 2000) rotate(-45)"/>
  <path class="cls-1" d="M2855.88,2395.2c15.92,37.64,24,77.61,24,118.78s-8.07,81.14-24,118.79c-15.37,36.34-37.36,68.96-65.37,96.97-28.01,28-60.63,50.01-96.97,65.37-37.65,15.93-77.62,24-118.79,24s-81.14-8.06-118.78-24c-36.34-15.36-68.97-37.36-96.97-65.37-28.01-28.01-50.01-60.63-65.38-96.97-15.92-37.65-24-77.61-24-118.79,0-29.03,4.02-57.46,11.97-84.89l-595.67-269.99c-13.43,23.57-29.97,45.23-49.39,64.65-28.01,28.01-60.63,50.01-96.97,65.38-37.65,15.92-77.62,24-118.79,24s-81.14-8.07-118.78-24c-36.34-15.37-68.97-37.36-96.97-65.38-28.01-28-50.01-60.63-65.38-96.97-15.92-37.64-24-77.61-24-118.78s8.07-81.14,24-118.79c15.37-36.34,37.36-68.96,65.38-96.97,28-28,60.63-49.99,96.97-65.37,37.64-15.92,77.61-24,118.78-24s81.14,8.07,118.79,24c36.34,15.37,68.96,37.36,96.97,65.37,13.82,13.82,26.16,28.77,36.98,44.73l609.11-279.01c-5.66-23.4-8.51-47.45-8.51-71.93,0-41.18,8.07-81.14,24-118.79,15.37-36.34,37.36-68.96,65.37-96.97,28.01-28,60.63-50.01,96.97-65.37,37.65-15.92,77.62-24,118.79-24s81.14,8.07,118.78,24c36.34,15.36,68.97,37.36,96.97,65.37,28.01,28.01,50.01,60.63,65.38,96.97,15.92,37.65,24,77.61,24,118.79s-8.07,81.14-24,118.78c-15.37,36.34-37.36,68.97-65.38,96.97-28,28.01-60.63,50.01-96.97,65.38-37.64,15.92-77.61,24-118.78,24s-81.14-8.07-118.79-24c-36.34-15.37-68.96-37.36-96.97-65.38-18.66-18.66-34.65-39.38-47.79-61.87l-603.76,276.56c9.28,29.48,13.97,60.16,13.97,91.54,0,23.38-2.6,46.36-7.77,68.77l600.05,271.98c11.7-18.15,25.35-35.04,40.83-50.52,28-28.01,60.63-50.01,96.97-65.38,37.64-15.92,77.61-24,118.78-24s81.14,8.07,118.79,24c36.34,15.37,68.96,37.36,96.97,65.38,28,28,49.99,60.63,65.37,96.97Z"/>
</svg>