<?xml version="1.0" encoding="UTF-8"?>
<svg id="Layer_1" data-name="Layer 1" xmlns="http://www.w3.org/2000/svg" viewBox="0 0 3747.82 3619.6">
  <defs>
    <style>
      .cls-1 {
        fill: #fff;
      }

      .cls-2 {
        fill: #35a4dd;
      }
    </style>
  </defs>
  <circle class="cls-2" cx="1873.91" cy="1809.8" r="1463.58" transform="translate(-730.86 1855.13) rotate(-45)"/>
  <path class="cls-1" d="M2433.79,2607.19h0c-12.83,89.77-66.23,158.42-167.37,105.43l-692.21-465.73c-38.14-30.51-38.14-76.28-15.26-106.8l614.81-596.42c26.31-25.74-6.79-67.51-37.86-47.78,0,0-537.45,356.29-817.8,539.56-64.05,41.87-144.27,50.53-215.77,23.25l-343.4-109.96c-57.03-21.76-58.52-101.89-2.34-125.76,0,0,1305.22-541.85,1740.65-727.96,95.76-40.93,177.66,27.01,160.19,129.68-62.97,370.15-223.64,1382.49-223.64,1382.49Z"/>
</svg>