<?xml version="1.0" encoding="UTF-8"?>
<svg id="Layer_1" data-name="Layer 1" xmlns="http://www.w3.org/2000/svg" viewBox="0 0 3747.82 3619.6">
  <defs>
    <style>
      .cls-1 {
        fill: #231f20;
      }

      .cls-2 {
        fill: #fff;
        fill-rule: evenodd;
      }
    </style>
  </defs>
  <circle class="cls-1" cx="1873.91" cy="1899.59" r="1463.58" transform="translate(-794.36 1881.43) rotate(-45)"/>
  <path class="cls-2" d="M1762.67,1832.57c0,6.74-.96,13.48,0,20.22,0,7.7.96,8.67,1.93,17.33.96,22.14.96,58.73,0,80.88-.96,18.29-8.67,11.55-22.14,8.67-92.43-21.18-197.38,30.81-233.96,118.43-77.99,184.86,121.31,363.94,288.84,269.59,84.73-48.14,111.69-115.54,111.69-210.85v-963.77h234.93c23.11,6.74,18.29,36.59,20.22,55.84,6.74,71.25,63.55,148.27,117.46,194.49,28.88,24.07,58.73,45.25,92.43,62.58,85.69,46.22,97.24,22.14,121.31,34.66,18.29,10.59,9.63,50.07,10.59,68.36,0,25.03,2.89,49.1,1.93,75.1,0,12.52-.96,25.03-.96,38.51.96,13.48,2.89,26.96,2.89,39.48-1.93,31.77-23.11,30.81-49.1,26.96-101.09-12.52-149.24-26-241.66-70.28-51.99-26-60.66-62.58-57.77,33.7,1.93,49.1,0,103.02,0,153.09v155.01c0,50.07,2.89,105.91-.96,155.01-4.81,81.84-32.74,161.75-79.91,229.15-98.21,138.64-252.26,211.82-422.67,198.34-155.97-12.52-297.51-112.65-368.76-251.29-168.49-330.24,106.87-713.44,473.7-662.41v123.24ZM1330.37,940.04c-76.06,2.89-130.94,6.74-201.23,39.48-51.99,25.03-100.13,63.55-134.79,109.76-96.28,127.09-76.06,254.18-80.88,403.42-4.81,152.12-.96,310.99-.96,463.11v233c0,79.91-1.93,157.9,1.93,237.81,5.78,140.57,25.03,249.37,140.57,343.72,113.61,93.39,254.18,89.54,393.79,90.5,161.75.96,323.5,0,484.29,0s324.47,4.81,482.37-2.89c137.68-5.78,248.4-32.74,336.02-147.31,94.36-122.28,81.84-256.11,83.76-401.49,2.89-155.01.96-311.95,0-466.96,0-77.99.96-155.01,0-233,0-80.88,2.89-157.9-.96-238.78-3.85-77.02-5.78-133.83-36.59-205.08-22.14-53.92-59.69-102.06-103.98-138.64-118.43-95.32-252.26-89.54-396.68-88.58-160.79.96-322.54,0-484.29,0s-323.5-3.85-482.37,1.93h0Z"/>
</svg>