<?xml version="1.0" encoding="UTF-8"?>
<svg id="Layer_1" data-name="Layer 1" xmlns="http://www.w3.org/2000/svg" xmlns:xlink="http://www.w3.org/1999/xlink" viewBox="0 0 4000 4000">
  <defs>
    <style>
      .cls-1 {
        fill: #fefefd;
      }

      .cls-2 {
        fill: url(#linear-gradient);
      }
    </style>
    <linearGradient id="linear-gradient" x1="2710.87" y1="768.73" x2="1289.13" y2="3231.27" gradientUnits="userSpaceOnUse">
      <stop offset="0" stop-color="#80c568"/>
      <stop offset="1" stop-color="#4cb749"/>
    </linearGradient>
  </defs>
  <circle class="cls-2" cx="2000" cy="2000" r="1421.51"/>
  <g>
    <path class="cls-1" d="M2765.44,1502.06c1.28,2.69,2.42,5.47,3.87,8.07,29.78,53.25,53.73,108.99,71.79,167.27,10.79,34.81,19.34,70.16,25.73,106.01,3.23,18.09,5.79,36.3,7.77,54.59,2.22,20.54,3.76,41.1,4.76,61.73.84,17.27,1.45,34.53.92,51.79-.62,20.25-1.09,40.53-3.25,60.71-1.12,10.45-1.82,20.94-3.07,31.37-1.43,11.92-2.98,23.84-4.98,35.67-4.49,26.64-10.01,53.06-16.8,79.24-9.91,38.2-22.47,75.49-37.28,112.04-1.26,3.1-2.27,6.31-3.4,9.47-1.49,3.02-3.11,5.99-4.46,9.07-57.2,129.84-140.91,239.57-250.65,329.35-83.38,68.21-176.4,119.13-278.64,153.13-2.83.94-5.59,2.12-8.39,3.18-10.78,3.07-21.55,6.21-32.36,9.2-29.22,8.1-58.72,14.91-88.69,19.6-10.35,1.62-20.72,3.05-31.07,4.65-1.82.28-3.56,1-5.34,1.51-1.56-.47-3.06-.31-4.51.41-5.36-.23-10.68-.04-15.79,1.87-1.55-.51-3.05-.37-4.51.34-7.59-.21-15.15-.03-22.55,1.97-2.29-.66-4.55-.48-6.77.34-11.9.25-23.81.34-35.7.79-13.03.49-26.05.49-39.08-.02-11.89-.46-23.8-.56-35.7-.81-2.22-.82-4.47-1.01-6.76-.35-3.53-1.48-7.3-1.44-11.02-1.7-18.64-1.29-37.16-3.57-55.61-6.41-2.56-.4-5.19-.35-7.79-.51-1.42-.76-2.91-1-4.49-.61-1.39-.49-2.75-1.2-4.19-1.44-37.76-6.13-74.83-15.14-111.44-26.15-4.27-1.28-8.35-3.36-12.95-3.45-1.68-.79-3.29-1.77-5.04-2.35-47.43-15.65-93.17-35.23-137.28-58.65-2.63-1.4-5.35-2.64-7.89-3.89-3.93,1.02-7.55,1.94-11.18,2.89-38.77,10.14-77.54,20.26-116.3,30.42-36.95,9.69-73.9,19.4-110.83,29.14-1.4.37-2.69,1.16-4.02,1.75-3.29.66-6.62,1.14-9.86,1.99-68.4,17.88-136.8,35.8-205.2,53.7-1.44.38-2.91.73-4.38.8-.53.03-1.59-.86-1.56-1.26.16-2.22.38-4.47.96-6.62,3.11-11.56,6.35-23.08,9.5-34.63.39-1.42.45-2.93.66-4.4.88-2.46,1.92-4.88,2.61-7.4,19.95-72.75,39.88-145.51,59.78-218.27,15.64-57.2,31.24-114.41,46.86-171.62.59-2.17,1.22-4.34,1.72-6.53.43-1.88.17-3.74-.73-5.46-.87-1.66-1.82-3.28-2.74-4.92-16.58-29.49-31.54-59.76-44.54-91-.99-2.39-2.39-4.61-3.6-6.91-.61-2.15-1.08-4.34-1.84-6.43-5.53-15.16-11.38-30.21-16.64-45.47-12.01-34.82-21.4-70.39-28.69-106.48-4.16-20.6-7.84-41.31-10.08-62.24-.8-7.47-1.73-14.92-2.56-22.38-1.71-15.31-3.16-30.64-3.65-46.04-1.22-37.94-1.58-75.88,1.85-113.75,1.05-11.59,1.75-23.23,3.24-34.77,2.26-17.5,4.8-34.95,7.97-52.32,6.62-36.24,15.44-71.91,26.54-107.04,21.94-69.47,52.27-135.08,90.59-197.02,2.17-3.51,4.14-7.13,6.21-10.7,2.4-3.34,4.93-6.6,7.19-10.03,24.42-37.1,51.53-72.15,81.33-105.07,46.33-51.19,97.76-96.59,154.68-135.75,76.74-52.79,159.72-92.48,249.02-118.97,52.34-15.53,105.74-25.74,160.01-31.31,16.05-1.65,32.15-3.2,48.33-3.24,3.75-.01,7.52-.16,11.26-.45,16.51-1.26,33.07-1.31,49.56-.38,18.37,1.03,36.77,1.19,55.12,3.06,16.44,1.68,32.89,3.24,49.24,5.6,26.75,3.85,53.31,8.85,79.62,15.17,55.29,13.28,108.81,31.67,160.48,55.43,74.54,34.27,142.85,78.25,205.07,131.73,46.04,39.57,87.59,83.37,124.7,131.4,22.31,28.87,42.72,59.02,61.25,90.45,1.69,2.87,3.01,6.05,5.66,8.28ZM1293.76,2106.34c.07,1.12-.04,2.27.23,3.34,4.3,17.08,8.93,34.06,14.29,50.85,18,56.34,42.58,109.65,73.57,160,5.7,9.26,11.39,18.53,17.38,27.6,2.51,3.81,2.94,7.45,1.63,11.68-1.88,6.08-3.55,12.23-5.19,18.39-.47,1.78-.52,3.67-.76,5.52-.79,2.1-1.76,4.14-2.35,6.29-18.71,68.05-37.4,136.1-56.06,204.17-2.28,8.31-4.42,16.67-6.6,25.01-.29,1.09.86,2.34,1.93,2.1,5.12-1.17,10.26-2.26,15.34-3.6,81.69-21.46,163.37-42.96,245.06-64.44,3.27-.86,6.54-1.71,9.83-2.45,1.87-.42,3.7-.13,5.41.89,7.43,4.4,14.92,8.71,22.34,13.14,59.72,35.69,123.31,62.1,190.64,79.51,24.01,6.2,48.27,11.19,72.81,14.83,13.38,1.98,26.79,3.6,40.25,4.92,18.33,1.79,36.7,2.98,55.1,3.37,35.37.75,70.57-1.42,105.69-5.76,27.25-3.37,54.21-8.23,80.84-14.76,76.49-18.74,148.15-49.02,214.82-90.99,69.64-43.85,130.13-97.97,181.74-162.04,1.16-1.44,1.99-3.14,2.97-4.71,2.23-2.51,4.62-4.89,6.66-7.54,58.24-75.92,99.93-160.07,125.3-252.31,1.88-6.83,4.23-13.6,4.75-20.75.72-2.12,1.66-4.2,2.14-6.38,1.77-8.04,3.5-16.09,5.05-24.18,4.17-21.7,7.54-43.51,9.63-65.53,1.94-20.52,3.63-41.03,3.8-61.65.18-22.48.08-44.95-2.03-67.37-1.05-11.18-1.71-22.41-3.12-33.55-1.74-13.74-3.82-27.44-6.26-41.07-2.04-11.41-3.79-22.9-7.26-34.02.32-3.41-1.19-6.4-2.24-9.49-.71-2.85-1.42-5.71-2.13-8.56.26-3.44-1.33-6.41-2.47-9.48-.82-2.96-1.64-5.93-2.46-8.89-1.68-6.15-3.16-12.36-5.06-18.43-33.49-106.86-89.08-200.77-165.76-282.23-35.66-37.89-75-71.55-117.87-101.06-70.32-48.4-146.82-83.24-229.45-104.62-23.63-6.11-47.53-11.04-71.7-14.58-13.01-1.91-26.04-3.51-39.12-4.84-18.33-1.86-36.69-3.1-55.08-3.5-19.9-.43-39.8-.23-59.7,1.21-16.86,1.22-33.68,2.69-50.46,4.7-20.15,2.42-40.13,5.86-59.95,10.13-51.94,11.2-102.13,27.76-150.37,50.07-106.25,49.14-195.79,119.61-268.55,211.28-58.12,73.23-100.53,154.71-127.19,244.34-.96,3.22-1.54,6.56-2.29,9.84-.46,1.01-1.07,1.98-1.37,3.03-7.78,27.83-13.73,56.05-18.1,84.6-2.21,14.46-3.85,28.97-5.24,43.54-1.81,19.06-2.5,38.17-3.18,57.27-.62,17.26.7,34.49,1.38,51.73.52,13.14,1.82,26.2,3.25,39.23,2.52,23.1,6.22,46.06,11.1,68.8,1.25,5.84,1.88,11.88,4.47,17.39Z"/>
    <path class="cls-1" d="M1755.62,2106.32c-1.1-1.49-2.07-3.1-3.32-4.45-37.12-40.02-71.27-82.42-102.41-127.25-2.14-3.08-4.4-6.09-6.62-9.13-25.31-34.78-46.7-71.77-62.73-111.74-9.11-22.72-16.07-46.08-20.19-70.24-.57-3.33-.77-6.72-1.32-10.05-.42-2.58-1.11-5.11-1.68-7.67.55-2.3.37-4.55-.42-6.76-.1-8.26-.2-16.52-.3-24.78.78-7.84,1.52-15.68,2.34-23.51,5.11-48.89,23.73-92.01,55.59-129.38,7.06-8.28,14.54-16.23,22.05-24.11,7.6-7.98,16.67-14,26.8-18.32,8.35-3.56,17.04-5.94,26.2-5.88,18.41.12,36.81.28,55.22.63,8.21.16,15.29,3.35,21.23,9.1,3.54,3.43,6.46,7.31,9.05,11.47,3.98,6.4,7,13.28,9.86,20.22,7.44,18.05,14.87,36.1,22.32,54.14,12.76,30.88,25.49,61.77,38.36,92.6,2.89,6.91,6.3,13.6,9.48,20.39-.18.77.02,1.44.59,2,.6,2.9,1.19,5.79,1.78,8.69,0,2.25,0,4.49,0,6.74-.38,2.17-.77,4.34-1.15,6.51-3.48,7.06-6.93,14.13-10.44,21.17-4.05,8.11-9.04,15.57-14.95,22.46-4.65,5.42-9.04,11.05-13.72,16.44-7.14,8.23-14.44,16.3-21.63,24.49-2.72,3.1-5.61,6.11-7.91,9.51-4.91,7.27-6.16,15.13-3.08,23.6,1.55,4.28,3.7,8.2,5.99,12.08,11.45,19.44,24,38.15,37.34,56.34,17.13,23.36,35.63,45.59,55.79,66.41,23.06,23.82,48.25,45.18,75.1,64.61,30.54,22.09,62.96,40.91,97.4,56.26,11.32,5.04,22.62,10.11,33.91,15.21,4.81,2.17,9.74,3.83,14.93,4.91,8.34,1.74,15.72-.24,22.17-5.44,3.48-2.81,6.66-6.09,9.56-9.52,14.31-16.93,28.67-33.82,42.64-51.03,8.52-10.49,16.35-21.54,24.56-32.28,2.27-2.98,4.59-5.97,7.23-8.61,5-5,11.12-7.55,18.28-7.34,4.52.13,8.95.63,13.33,1.95,7.57,2.28,14.95,5.07,22.09,8.41,22.45,10.49,44.89,21.01,67.25,31.69,15.93,7.6,31.71,15.5,47.59,23.2,2.34,1.13,4.84,1.93,7.26,2.88,2.24,1.34,4.41,2.84,6.74,4,9.75,4.85,19.58,9.54,29.31,14.43,4.36,2.19,8.61,4.6,12.79,7.11,7.67,4.62,11.54,11.52,11.91,20.47.37,9.02.55,18.05-.47,27.03-2.26,19.82-6.65,39.18-12.64,58.23-4.85,15.41-12.99,28.66-23.86,40.38-6.91,7.45-14.4,14.27-22.4,20.56-22.63,17.77-47.45,31.67-74.23,42.06-13.35,5.18-27.19,8.28-41.48,9.97-18.73,2.22-37.45,2.62-56.25,2.14-21.15-.54-41.95-3.86-62.13-9.94-50.38-15.17-99.74-33.14-147.61-55.08-39.75-18.22-76.99-40.72-112.49-66.16-42.26-30.28-81.31-64.31-117.84-101.25-5.55-5.61-10.99-11.32-16.54-16.93-1.3-1.31-2.82-2.4-4.24-3.59Z"/>
  </g>
</svg>